<svg xmlns="http://www.w3.org/2000/svg" id="Calque_2" width="684.41" height="129.53" viewBox="0 0 684.41 129.53"><g id="Layer_1"><path d="M128.87,78.87l5.92,4.51-1.78,2.14c-6.86,8.2-15.27,12.19-25.73,12.19-19.68,0-32.91-13.12-32.91-32.66s13.22-33.25,32.91-33.25c10.11,0,19.01,4.24,25.73,12.28l1.73,2.07-5.82,4.74-1.68-2.06c-5.24-6.41-11.95-9.67-19.96-9.67-15.77,0-25.57,9.92-25.57,25.89s10.04,25.38,25.57,25.38c8.23,0,14.57-3.05,19.97-9.59l1.63-1.98ZM185.29,32.15h-48.33v7.19h20.37v58.12h7.34v-58.12h20.63v-7.19ZM66.34,64.72c0,18.81-14.22,32.99-33.08,32.99S0,83.84,0,64.72,14.3,31.81,33.26,31.81s33.08,14.15,33.08,32.91ZM7.34,64.72c0,14.9,10.9,25.72,25.92,25.72s25.74-10.82,25.74-25.72-10.83-25.55-25.74-25.55-25.92,10.75-25.92,25.55ZM251.22,64.72c0,18.81-14.22,32.99-33.08,32.99s-33.26-13.88-33.26-32.99,14.3-32.91,33.26-32.91,33.08,14.15,33.08,32.91ZM243.89,64.72c0-14.81-10.83-25.55-25.74-25.55s-25.92,10.75-25.92,25.55,10.9,25.72,25.92,25.72,25.74-10.82,25.74-25.72ZM287.91,70.6h23.51v14.37c-4.85,3.59-11.45,5.48-19.19,5.48-15.35,0-25.66-10.27-25.66-25.55s10.31-25.72,25.66-25.72c8.17,0,14.13,2.15,19.34,6.98l1.85,1.71,5.22-5.05-2.03-1.91c-6.49-6.12-14.47-9.09-24.38-9.09-19.43,0-32.99,13.6-32.99,33.08s13.57,32.82,32.99,32.82c10.35,0,19.2-2.94,25.61-8.51l.92-.8v-25.08h-30.85v7.27ZM450.88,83.76l-40.09-51.61h-5.89v65.31h7.34v-51.52l40,51.52h5.98V32.15h-7.34v51.61ZM475.87,90.19v-21.79h28.58v-7.27h-28.58v-21.79h34v-7.19h-41.34v65.31h43.18v-7.27h-35.84ZM394.52,64.72c0,18.81-14.22,32.99-33.08,32.99s-33.26-13.88-33.26-32.99,14.3-32.91,33.26-32.91,33.08,14.15,33.08,32.91ZM335.52,64.72c0,14.9,10.9,25.72,25.92,25.72s25.74-10.82,25.74-25.72-10.83-25.55-25.74-25.55-25.92,10.75-25.92,25.55Z" fill="#fff" stroke-width="0"></path><path d="M683.66,37.19L647.22.75c-.48-.48-1.13-.75-1.81-.75h-51.53c-.68,0-1.33.27-1.81.75l-36.44,36.44c-.48.48-.75,1.13-.75,1.81v51.53c0,.68.27,1.33.75,1.81l36.44,36.44c.48.48,1.13.75,1.81.75h51.53c.68,0,1.33-.27,1.81-.75l36.44-36.44c.48-.48.75-1.13.75-1.81v-51.53c0-.68-.27-1.33-.75-1.81ZM679.29,40.06v18.94l-53.88-53.88h18.94l34.94,34.94ZM677.81,64.76l-58.17,58.17-58.17-58.17,58.17-58.17,58.17,58.17ZM594.94,5.12h18.94l-53.88,53.88v-18.94l34.94-34.94ZM560,89.47v-18.94l53.88,53.88h-18.94l-34.94-34.94ZM644.35,124.41h-18.94l53.88-53.88v18.94l-34.94,34.94Z" fill="#966327" stroke-width="0"></path></g></svg>