<svg width="600" height="450" viewBox="0 0 600 450" fill="none" xmlns="http://www.w3.org/2000/svg">
  <!-- Fond -->
  <rect width="600" height="450" rx="8" fill="#E5F1FF"/>
  
  <!-- En-tête -->
  <rect y="0" width="600" height="60" rx="8" fill="#002236"/>
  <circle cx="30" cy="30" r="10" fill="#DCB26B"/>
  <rect x="60" y="25" width="100" height="10" rx="2" fill="#FFFFFF"/>
  <rect x="400" y="25" width="80" height="10" rx="2" fill="#FFFFFF"/>
  <rect x="500" y="25" width="80" height="10" rx="2" fill="#FFFFFF"/>
  
  <!-- Sidebar -->
  <rect x="0" y="60" width="160" height="390" fill="#FFFFFF"/>
  <rect x="20" y="90" width="120" height="10" rx="2" fill="#DCB26B"/>
  <rect x="20" y="120" width="120" height="10" rx="2" fill="#E5F1FF"/>
  <rect x="20" y="150" width="120" height="10" rx="2" fill="#E5F1FF"/>
  <rect x="20" y="180" width="120" height="10" rx="2" fill="#E5F1FF"/>
  <rect x="20" y="210" width="120" height="10" rx="2" fill="#E5F1FF"/>
  
  <!-- Contenu principal -->
  <rect x="180" y="80" width="400" height="40" rx="4" fill="#FFFFFF"/>
  <rect x="200" y="95" width="200" height="10" rx="2" fill="#002236"/>
  <rect x="500" y="90" width="60" height="20" rx="4" fill="#DCB26B"/>
  
  <!-- Graphiques -->
  <rect x="180" y="140" width="190" height="140" rx="4" fill="#FFFFFF"/>
  <rect x="200" y="160" width="150" height="10" rx="2" fill="#002236"/>
  <rect x="200" y="180" width="150" height="80" rx="2" fill="#E5F1FF"/>
  <path d="M200 240 L220 220 L240 230 L260 210 L280 200 L300 220 L320 210" stroke="#DCB26B" stroke-width="3"/>
  
  <rect x="390" y="140" width="190" height="140" rx="4" fill="#FFFFFF"/>
  <rect x="410" y="160" width="150" height="10" rx="2" fill="#002236"/>
  <circle cx="485" cy="220" r="40" fill="#E5F1FF"/>
  <path d="M485 220 L485 180 A40 40 0 0 1 520 220 Z" fill="#DCB26B"/>
  
  <!-- Tableaux -->
  <rect x="180" y="300" width="400" height="130" rx="4" fill="#FFFFFF"/>
  <rect x="200" y="320" width="150" height="10" rx="2" fill="#002236"/>
  <rect x="200" y="350" width="360" height="1" fill="#E5F1FF"/>
  <rect x="200" y="380" width="360" height="1" fill="#E5F1FF"/>
  <rect x="200" y="410" width="360" height="1" fill="#E5F1FF"/>
  
  <rect x="200" y="360" width="80" height="10" rx="2" fill="#002236"/>
  <rect x="300" y="360" width="60" height="10" rx="2" fill="#002236"/>
  <rect x="400" y="360" width="40" height="10" rx="2" fill="#002236"/>
  <rect x="500" y="360" width="40" height="10" rx="2" fill="#DCB26B"/>
  
  <rect x="200" y="390" width="80" height="10" rx="2" fill="#002236"/>
  <rect x="300" y="390" width="60" height="10" rx="2" fill="#002236"/>
  <rect x="400" y="390" width="40" height="10" rx="2" fill="#002236"/>
  <rect x="500" y="390" width="40" height="10" rx="2" fill="#DCB26B"/>
</svg>
