<?xml version="1.0" encoding="UTF-8"?>
<svg id="Calque_1" xmlns="http://www.w3.org/2000/svg" version="1.1" viewBox="0 0 1000 1000">
  <!-- Generator: Adobe Illustrator 29.8.2, SVG Export Plug-In . SVG Version: 2.1.1 Build 3)  -->
  <defs>
    <style>
      .st0 {
        fill: #d9ab5c;
      }
    </style>
  </defs>
  <path class="st0" d="M792.5,373.69l-166.5-166.5c-2.19-2.19-5.17-3.43-8.27-3.43h-235.46c-3.1,0-6.07,1.23-8.27,3.43l-166.5,166.5c-2.19,2.19-3.43,5.17-3.43,8.27v235.46c0,3.1,1.23,6.07,3.43,8.27l166.5,166.5c2.19,2.19,5.17,3.43,8.27,3.43h235.46c3.1,0,6.07-1.23,8.27-3.43l166.5-166.5c2.19-2.19,3.43-5.17,3.43-8.27v-235.46c0-3.1-1.23-6.07-3.43-8.27ZM772.54,386.8v86.55l-246.2-246.2h86.55l159.65,159.65ZM765.8,499.69l-265.8,265.81L234.2,499.69,500,233.88l265.8,265.8ZM387.11,227.15h86.55l-246.2,246.2v-86.55l159.65-159.65ZM227.46,612.58v-86.56l246.2,246.2h-86.55l-159.65-159.65ZM612.89,772.22h-86.55l246.2-246.2v86.56l-159.65,159.65Z"/>
</svg>